<?xml version="1.0" encoding="UTF-8"?>
<svg id="Camada_2" data-name="Camada 2" xmlns="http://www.w3.org/2000/svg" viewBox="0 0 654.31 836.45">
  <defs>
    <style>
      .cls-1 {
        fill: #a8b7b8;
      }

      .cls-1, .cls-2, .cls-3, .cls-4, .cls-5, .cls-6 {
        stroke-width: 0px;
      }

      .cls-2 {
        fill: #c5ddd8;
      }

      .cls-3 {
        fill: #f1d09d;
      }

      .cls-4 {
        fill: #fdf0e0;
      }

      .cls-5 {
        fill: #94707e;
      }

      .cls-6 {
        fill: #220609;
      }
    </style>
  </defs>
  <g id="Camada_5" data-name="Camada 5">
    <path class="cls-6" d="M136.51,512.97c.77-1.01.85-1.9.39-3.18-11.01-30.6-12.66-62.48-12.86-94.56-.04-6.98,0-13.96,0-21.02-20.68-.68-35.05-10.21-40.59-30.73-4.07-15.07,2.43-30.84,15.46-39.79,13.95-9.59,28.96-8.85,45.94,2.35,5.4-42.45,9.75-85.03,25.04-125.93-5.54-1.11-10.91-2.45-15.85-5.13-21.81-11.83-31.21-38.05-20.65-59.37,5.67-11.44,14.73-18.89,28.28-18.8,9.58.06,16.75,6.06,18.61,15.02,1.76,8.46-2.73,16.17-11.71,20.14-.42.19-.77.53-1.39.96,1.15,3.58,3.89,4.8,7.18,5.07,6.03.49,11.04-1.95,15.38-5.89,4.6-4.18,8.2-9.14,11.25-14.55,3.17-5.62,4.47-11.06,3.26-17.9-4.89-27.52,11.15-51.31,36.97-56.1,4.33-.8,8.61-.67,13.09.77.75-5.17,1.55-10.02,3.29-14.68,6.02-16.18,19.48-26.22,36.68-26.76,3.28-.1,3.69-2.09,4.67-4.11,6.89-14.16,21.39-21.56,35.87-17.69,10.05,2.68,18.26,8.1,21.88,18.59.61,1.77,1.43,2.92,3.51,2.76,20.19-1.55,39.65,20,39.97,39.64,0,.49.16.98.34,2.01,6.56-.88,13.15-.81,19.59,1.18,19.3,5.96,31.91,23.51,32.23,45.1.06,3.82-.23,7.67-.67,11.47-1.45,12.29,10.31,31.46,21.93,35.56,6.36,2.24,11.56.77,14.72-4.16-.68-1.49-2.31-1.11-3.45-1.69-8.16-4.15-11.82-11.2-10.08-19.63,1.72-8.29,8.83-14.32,17.71-15,14.06-1.08,28.51,10.33,32.25,25.46,6.45,26.08-8.75,50.19-35.63,56.48-1.1.26-2.19.54-3.78.93,14.09,40.91,20.54,83.1,25.3,126.12,17.94-12.87,35.13-12.39,51.13,2.6,11.15,10.44,14.29,26.68,8.42,40.99-7.09,17.28-20.96,24.01-39.22,24.49,0,6.97-.07,14.05.01,21.13.3,26.05-3.13,59.59-4.87,63.87,0,0,0,.02,0,.04.4.77,66,67.96,101-88.04-.96,4.28,13.14-1.23,12,3-43,159-99,105-117,102-3.31,12.29-9.01,30.42-18.84,51.17-9.99,21.1-30.15,60.24-70.81,93.53-15.25,12.49-31.8,23.24-50.65,28.58-27.15,7.69-50.15,13.69-101.63,2.12-43.67-9.81-75.31-40.84-100.68-77.41-14.49-20.88-26.89-42.8-36.38-66.38M438.55,117.92c.02-3.82.33-7.67.02-11.47-1.4-16.89-13.73-29.3-29.82-29.98-4.55-.19-9.06.37-11.1,5.54-2.22,3.47,0,5.43,2.7,6.65,3.61,1.64,7.46,2.74,11.19,4.11,12.77,4.7,17.65,13.06,15.34,26.25-.53.77-.11,2.09-1.58,2.49-6.72-6.27-13.8-12.24-21.79-17.05-8-4.82-16.52-8.5-25.28-11.67-.96-.35-2.42-.27-2.57-1.85.35-.27.7-.54,1.05-.81.4-.37.8-.73,1.19-1.1.62-.05.84-.43.83-1,.49-.65.99-1.29,1.48-1.94,2.53-3.71,4.87-7.51,5.48-12.1,3.06-12.18-.07-22.79-8.66-31.67-7.07-7.32-16.15-8.78-24.49-4.58-3.8-.73-6.52-2.45-6.36-6.86-.59-2.23-.92-4.57-1.82-6.67-3.63-8.47-13.31-13.06-21.62-10.63-8.99,2.64-14.65,11.6-13.29,21.26-2.17,1.91-4.77,2.68-7.59,2.87-5.9-3.04-11.82-2.77-17.64.13-11.1,5.53-17.46,17.75-16.22,30.13.96,9.57,5.08,17.26,12.94,23.23-.91.43-1.31.65-1.74.82-17.33,6.89-34.52,14.03-47.13,28.68-.76.88-1.55,1.21-2.46.23-2.31-14.15,1.8-22.32,13.89-27.4,3.06-1.29,6.24-2.28,9.3-3.57,2.26-.95,4.78-1.83,4.72-5.03.8-4.5-1.88-7.2-7.99-8.07-12.87-1.83-26.14,6.9-30.78,20.26-3.39,9.77-2.94,19.57-.37,29.44.52,1.98,1.75,3.96.44,6.23-6.99,12.11-13.97,24.27-25.45,32.83-12.18,9.08-25.2,7.78-35.17-3.17l-.03.27c-.12-1.02-.38-1.97-1.42-2.46-1.82-7.72-1.31-14.72,5.98-19.71,1.05-.72,2.37-1.25,2.83-2.64,2.06-4.82-.45-8.4-5.79-7.93-5.07.45-8.95,3.17-11.94,7.2-6.79,9.15-7.13,22.28-.86,32.69,5.68,12.04,22.66,21.24,36.96,15.64,1.5-.59,2.99-.9,4.13.4,1.31,1.49.62,3.2-.16,4.66-3.84,7.21-6.22,14.98-8.71,22.7-7.55,23.42-12.97,47.33-15.96,71.76-2.36,14.84-4.47,29.7-4.77,44.76-.42,5.42-3.81,11.03.41,16.17,2.92,3.56,4.08,7.4,4.08,11.94,0,16.82.2,33.64.33,50.47.24,31.9,2.78,63.53,11.67,94.34,10.31,35.7,24.97,69,51.36,96.28,26.43,27.32,58.57,41.58,96.13,43.79,29.7,1.75,56.64-7.13,81.33-23.31,11.76-7.71,21.74-17.31,30.91-27.98,9.55-11.11,18.76-22.42,25.42-35.49,18.09-35.48,27.48-73.37,30.55-112.92,2.18-28.09,1.63-56.25,1.8-84.39.02-3.55-.16-7.42,2.2-10.04,4.25-4.72,3.34-9.83,2.98-15.36-2.13-32.98-7.68-65.43-15.17-97.55-3.48-14.92-8.07-29.52-14.71-43.39-.79-1.64-3.31-3.06-1.57-5.13,1.59-1.89,3.89-1.76,6.38-1.2,16.65,3.74,31.89-4.78,38.04-21.08.58-1.89,1.36-3.75,1.72-5.69,2.28-12.28-3.41-24.38-13.29-28.44-5.32-2.19-8.64-.93-10.73,4.06-.82,2.1.75,2.93,2.06,3.9,10.49,7.7,11.8,12.67,6.37,24.14-5.86,7.54-13.79,9.5-22.75,8.03-8.49-1.39-14.71-6.69-20.29-12.79-6.68-7.3-10.91-16.27-16.45-24.35-1.1-1.6-.49-3.2-.37-4.82,1.43-3.56,1.91-7.26,1.67-11.07ZM558.69,348.88c-4.45-15.01-18.64-22.69-31.48-17.04-2.58.25-4.02,1.83-5.02,4.06,1.58,1.38,3.33.73,4.9.98,9.41,1.48,16.97,5.6,20.64,14.91,2.22,5.66.93,9.07-4.08,12.1-2.18-1-4.61.69-6.75-.54-.7-9.16-3.54-12.83-11.36-14.79-12.04-3.02-20.72,3.55-20.81,15.78-.02,2.49.09,4.99.14,7.49-.1,2.32-.27,4.65-.28,6.97-.08,18.33.25,36.68-1.02,54.97-2.37,34.17-8.53,67.58-20.62,99.78-13.05,34.74-32.7,64.86-61.72,88.33-18.07,14.61-38.42,24.71-61.26,29.88-35.89,8.12-69.94,2.91-102.07-14.18-32.17-17.12-55.08-43.7-72.01-75.41-23.45-43.93-33.15-91.38-34.19-140.86-.28-13.14.36-26.3-.74-39.42-.03-6.96-.23-13.92-.05-20.87.14-5.42-2.71-8.71-7.08-11-11.47-6.02-22.07-.5-24.88,13.03h-7.29c-4.43-4.04-5.1-7.13-2.56-12.8,3.79-8.48,11.16-11.83,19.64-13.57,1.72-.11,3.56.27,4.99-1.2-6.46-5.89-15.22-7.28-23-3.42-10.21,5.08-15.64,13.17-14.98,24.87.34,18.17,20.43,29.31,36.67,20.34,4.11-2.27,5.28-1.64,5.29,2.99.02,11.16.03,22.32-.05,33.47-.21,29.21.89,58.24,9.99,86.41,15.03,46.52,37.99,88.11,74.03,121.9,23.35,21.89,50.65,35.84,81.96,41.76,32.51,6.14,63.34-.31,92.51-14.76,26.82-13.28,47.01-34.55,65.48-57.52,15.28-18.99,25.84-40.75,35.58-62.85,12.07-27.41,19.6-56.07,20.38-86.16.52-20.14.3-40.3.43-60.46.04-6.39.8-6.86,6.28-4.06,7.97,4.08,19.8,2.27,27.43-4.2,6.83-5.78,9.79-16.35,6.98-24.91Z"/>
    <path class="cls-3" d="M496.74,162.93c5.43-11.47,4.11-16.44-6.37-24.14-1.32-.97-2.88-1.8-2.06-3.9,4.63.02,9.41-.57,13.03,3.36,4.71,5.11,8.34,10.66,8.4,18.01.02,2.89-1.07,5.97.87,8.69-6.16,16.3-21.4,24.83-38.04,21.08-2.49-.56-4.79-.69-6.38,1.2-1.74,2.07.79,3.49,1.57,5.13,6.65,13.88,11.24,28.48,14.71,43.39,7.49,32.13,13.04,64.57,15.17,97.55.36,5.54,1.27,10.65-2.98,15.36-2.36,2.62-2.18,6.49-2.2,10.04-.17,28.14.38,56.3-1.8,84.39-3.07,39.56-12.46,77.45-30.55,112.92-6.66,13.07-15.87,24.38-25.42,35.49-9.17,10.67-19.15,20.28-30.91,27.98-24.69,16.18-51.63,25.06-81.33,23.31-37.56-2.21-69.7-16.46-96.13-43.79-26.4-27.29-41.05-60.58-51.36-96.28-8.9-30.81-11.44-62.44-11.67-94.34-.12-16.82-.32-33.64-.33-50.47,0-4.54-1.15-8.38-4.08-11.94-4.22-5.15-.83-10.76-.41-16.17,5.86-.49,11.04-3.33,16.6-4.85,3.2-.87,4.44-2.45,4.75-5.89.9-9.89,2.16-19.76,3.57-29.6,2.4-16.78,6.87-33.13,10.71-49.6,3.78-16.23,9.93-31.68,17.88-46.37,5.8-10.72,13.45-20.15,20.85-29.76,11.58-15.03,26.24-26.48,42.92-35.03,21.18-10.86,43.79-15.29,67.63-11.72,19.03,2.84,36.44,10.06,52.25,20.7,14.83,9.98,26.44,23.43,37.43,37.49,3.77,4.82,7.01,11.25,14.61,11.67,2.66.93,5.09,1.11,7.25-1.3,2.25-2.5,1.17-4.98.14-7.36-.98-2.28-2.27-4.44-3.61-6.53-6.11-9.55-13.02-18.53-20.75-26.8-34.37-36.73-76.17-53.2-126.39-44.7-24.64,4.17-47.12,13.9-65.78,31.1-15.64,14.41-29.15,30.54-38.83,49.64-2.82.19-3.8,2.41-4.8,4.49-1.72,3.59-3.45,7.18-4.94,10.87-5.81,14.43-11.81,28.84-15.91,43.84-3.53,12.9-5.63,26.18-8.54,39.25-.43,1.94.03,4.43-2.24,5.72,2.99-24.44,8.41-48.34,15.96-71.76,2.49-7.72,4.87-15.49,8.71-22.7.78-1.46,1.47-3.17.16-4.66-1.14-1.3-2.63-.99-4.13-.4-14.3,5.61-31.28-3.6-36.96-15.64,1.45-.31,1.8-1.3,1.58-2.62-.5-2.93-.96-5.87-1.51-8.79-1.73-9.3,3.27-18.84,11.73-22.63,3.01-1.35,5.38-1.39,6.79,2.09-.46,1.39-1.78,1.92-2.83,2.64-7.29,4.98-7.79,11.98-5.98,19.71-.02,1.11,0,2.18,1.42,2.45,0,0,.03-.27.03-.26-.93,4.19,1.24,7.15,4.3,9.28,8.83,6.17,18.45,5.3,27.44,1.11,9.83-4.58,16.91-12.63,22.69-21.81,8.82-14,19.31-26.41,33.53-35.39,17.43-11.01,36.06-18.81,56.31-22.93,18.86-3.84,37.57-3.38,56.22.81,20.72,4.65,39.23,14.03,56.34,26.53,8.04,5.87,16.21,11.27,21.02,20.51,2.59,4.97,6.12,9.48,9.47,14.03,5.03,6.83,10.16,13.73,18.03,17.54,9.74,4.71,19.73,5.82,29.31-.42,2.91-1.89,6.3-4.27,3.87-8.82ZM419.64,172.08c-.31-.37-.63-.74-.94-1.11-.99-.49-1.7-1.22-2.02-2.3-.26-.7-.49-1.44-1.4-1.58l.25-.11.09.25c-.45-.39-.91-.77-1.36-1.16-1.24-1.09-2.53-2.13-3.71-3.28-15.84-15.56-34.37-26.46-55.99-31.71-28.02-6.8-54.84-2.7-80.33,10.18-27.27,13.79-45.73,36.06-58.44,63.29-9.44,20.23-15.05,41.72-19.48,63.58-4.76,23.48-7.14,47.26-9.47,71.04-.89,9.06-.02,18.27-.23,27.41-.48,20.84.98,41.61,2.01,62.4-1.93,1.54-1.95,3.71-1.98,5.9-.07,4.83.65,9.62.83,14.4.53,14.09,1.75,28.05,5.3,41.72,2.37,9.12,4.64,18.29,7.62,27.21,5.59,16.75,13.24,32.64,22.58,47.6,12.7,20.35,30.19,35.65,51.69,46.16,21.75,10.64,44.8,14.09,68.82,11.12,21.11-2.61,40.05-10.92,56.93-23.45,12.54-9.31,22.95-21.03,31.79-33.94,8.49-12.39,15.85-25.54,20.23-39.91,8.07-26.51,15.08-53.25,17.59-81.09,2.36-26.14,4.73-52.22,4.79-78.49.04-15.33-.29-30.65-1.45-45.88-1.24-16.17-3.95-32.21-6.54-48.25-3.16-19.6-8.52-38.53-15.16-57.17-3.29-9.23-7.64-17.97-12.53-26.42-3.81-6.58-10.23-10.11-17.01-12.98l.07-.03c.3-1.02-.41-1.25-1.15-1.45-.39-.11-.55-.37-.47-.77-.34-.44-.69-.87-1.03-1.31l.11.12Z"/>
    <path class="cls-3" d="M128.72,336.66c-8.47,1.73-15.85,5.09-19.64,13.57-2.54,5.67-1.87,8.76,2.56,12.8.86,3.79,3.62,5.63,7.14,5.75,3.93.14,5.28-2.98,5.78-6.28.46-3,2.28-4.74,4.8-5.87,6.71-3.02,14.15.64,16,7.71.41,1.58-.36,3.98,1.2,4.63,4.31,1.81,2.84,5.35,3.14,8.43.15,1.54-.74,3.42,1.24,4.46,1.1,13.12.46,26.28.74,39.42,1.04,49.48,10.74,96.92,34.19,140.86,16.93,31.72,39.84,58.3,72.01,75.41,32.13,17.09,66.18,22.31,102.07,14.18,22.84-5.17,43.19-15.27,61.26-29.88,29.02-23.46,48.67-53.59,61.72-88.33,12.09-32.2,18.25-65.61,20.62-99.78,1.27-18.29.94-36.64,1.02-54.97,0-2.32.18-4.65.28-6.97,1.94-.1,3.29-1.28,3.51-2.99.4-3.13,2.58-5.34,3.69-8.1,1.5-3.74,7.46-6.34,11.4-5.55,4.25.85,7.63,3.07,8,7.67.27,3.28,1.13,5.87,4.57,5.91,3.29.04,6.66-.79,7.62-4.87,5-3.03,6.3-6.44,4.08-12.1-3.66-9.31-11.22-13.43-20.64-14.91-1.57-.25-3.32.41-4.9-.98,1-2.22,2.44-3.81,5.02-4.06,3.57,1.99,7.7.91,11.53,2.48,7.67,3.15,13.27,8.49,18.3,14.7.79.98,1.24,1.63,1.65-.14,2.82,8.56-.14,19.12-6.98,24.91-7.64,6.47-19.46,8.28-27.43,4.2-5.47-2.8-6.24-2.33-6.28,4.06-.13,20.15.09,40.31-.43,60.46-.78,30.09-8.3,58.75-20.38,86.16-9.74,22.1-20.3,43.86-35.58,62.85-18.47,22.96-38.66,44.23-65.48,57.52-29.18,14.45-60,20.9-92.51,14.76-31.31-5.92-58.61-19.87-81.96-41.76-36.05-33.79-59-75.38-74.03-121.9-9.1-28.17-10.2-57.19-9.99-86.41.08-11.16.07-22.31.05-33.47,0-4.63-1.18-5.26-5.29-2.99-16.24,8.97-36.34-2.18-36.67-20.34,3.77-.55,3.57-4.14,4.45-6.47,3.6-9.61,13.92-16.92,24.01-16.51,2.05.08,4.09.05,4.53,2.74Z"/>
    <path class="cls-4" d="M447.65,186.85c-7.6-.42-10.84-6.85-14.61-11.67-10.99-14.05-22.6-27.51-37.43-37.49-15.8-10.63-33.22-17.85-52.25-20.7-23.84-3.57-46.45.86-67.63,11.72-16.68,8.55-31.34,20-42.92,35.03-7.4,9.61-15.05,19.03-20.85,29.76-7.95,14.69-14.1,30.15-17.88,46.37-3.83,16.47-8.3,32.83-10.71,49.6-1.41,9.84-2.68,19.7-3.57,29.6-.31,3.44-1.55,5.01-4.75,5.89-5.56,1.52-10.73,4.35-16.6,4.85.3-15.06,2.41-29.92,4.77-44.76,2.27-1.29,1.81-3.78,2.24-5.72,2.92-13.07,5.02-26.35,8.54-39.25,4.1-15,10.1-29.41,15.91-43.84,1.48-3.69,3.22-7.28,4.94-10.87,1-2.09,1.98-4.3,4.8-4.49,2.82,5.78,7.72,6.37,11.32,1.35.87-1.22,1.7-2.47,2.52-3.72,12.11-18.53,25.92-35.36,44.7-47.74,51.04-33.65,111.27-25.22,151.74,10.07,15.21,13.26,26.76,29.33,37.69,46Z"/>
    <path class="cls-4" d="M496.74,162.93c2.43,4.56-.97,6.93-3.87,8.82-9.58,6.24-19.57,5.13-29.31.42-7.87-3.81-13-10.71-18.03-17.54-3.35-4.54-6.88-9.06-9.47-14.03-4.82-9.24-12.99-14.64-21.02-20.51-17.11-12.5-35.62-21.88-56.34-26.53-18.65-4.19-37.36-4.65-56.22-.81-20.25,4.12-38.88,11.92-56.31,22.93-14.21,8.98-24.7,21.39-33.53,35.39-5.78,9.17-12.86,17.23-22.69,21.81-8.99,4.19-18.61,5.06-27.44-1.11-3.05-2.13-5.23-5.09-4.3-9.28,9.97,10.95,22.99,12.25,35.17,3.17,11.48-8.56,18.46-20.72,25.45-32.83,1.31-2.26.08-4.25-.44-6.23-2.57-9.87-3.02-19.67.37-29.44,4.64-13.37,17.91-22.09,30.78-20.26,6.11.87,8.78,3.57,7.99,8.07-3.35-2.5-7.12-3.77-11.2-2.78-6.37,1.54-12.35,4.13-16.58,9.4-9.34,11.66-10.07,24.61-5.68,39.03,2.13-3.7,3.84-6.68,5.56-9.66.92.99,1.71.65,2.46-.23,12.61-14.65,29.79-21.79,47.13-28.68.42-.17.82-.39,1.74-.82-7.85-5.97-11.98-13.66-12.94-23.23-1.24-12.39,5.12-24.6,16.22-30.13,5.82-2.9,11.74-3.16,17.64-.13-2.04,3.07-5.43,1.73-8.16,2.53-16.04,4.7-24.19,19.59-19.47,35.72,1.15,3.93,2.57,7.73,5.64,10.86,2.32,2.37,4.63,1.17,6.9.97,2.68-.24,1.64-2.76,2.03-4.38,2.46,1.53,4.42,4.02,7.94,3.26,19.25-4.18,38.58-3.37,57.95-.84,10.2,1.33,13.95-1.03,18.16-10.78.59-1.36,1.09-2.76,1.64-4.14,1.75,3.89-.21,7.02-1.89,10.32-1.22,2.41-5.35,3.28-4.27,6.57,1.06,3.23,5.05,1.61,7.34,3.13.15,1.58,1.61,1.51,2.57,1.85,8.76,3.17,17.28,6.85,25.28,11.67,7.99,4.81,15.07,10.78,21.79,17.05,1.47-.39,1.05-1.71,1.58-2.49,2.66,1.12,3.22,3.94,4.86,5.87,1.39,1.64,1.64,5.03,5.14,4.1-.12,1.62-.73,3.22.37,4.82,5.54,8.08,9.77,17.06,16.45,24.35,5.58,6.1,11.8,11.4,20.29,12.79,8.95,1.46,16.88-.49,22.75-8.03Z"/>
    <path class="cls-3" d="M288.79,83.42c-.39,1.62.65,4.15-2.03,4.38-2.26.2-4.58,1.4-6.9-.97-3.07-3.13-4.49-6.94-5.64-10.86-4.72-16.13,3.44-31.02,19.47-35.72,2.74-.8,6.12.54,8.16-2.53,2.82-.19,5.42-.96,7.59-2.87,1.5.95,1.02,2.71,1.62,4.04,2.22,4.88,7.86,6.16,11.52,2.44-.26-.55-.54-1.14-.83-1.73-3.12-6.29-2.4-13.49,1.65-16.47,5.29-3.88,12.02-2.87,17.5,2.6,1.74,1.74,3.51,3.44,5.27,5.16-.17,4.4,2.56,6.13,6.36,6.86,1.16,1.67,2.94,1.85,4.77,2.21,14.32,2.83,24.97,12,27.06,26.46.36,2.52-.85,5.38,1.32,7.59-.61,4.58-2.94,8.39-5.48,12.1-1.12.17-1.46.93-1.48,1.94,0,.57-.21.95-.83,1-.4.37-.8.73-1.19,1.1-.35.27-.7.54-1.05.81-2.29-1.52-6.28.1-7.34-3.13-1.08-3.28,3.05-4.16,4.27-6.57,1.68-3.31,3.64-6.44,1.89-10.32-.02-.5-.14-1.01-.06-1.49,2.25-14.21-14.53-28.77-28.98-19.83-2.26,1.4-4.58,2.69-6.84,4.08-6.44,3.96-12.91,5.01-19.68.64-3.35-2.16-6.84-4.18-10.45-5.84-6.41-2.95-12.64-2.17-18.45,1.8-9.37,6.39-11.32,16.96-5.34,28.78.03,1.58.32,2.93,2.37,2.78.58.53,1.16,1.06,1.75,1.58Z"/>
    <path class="cls-3" d="M436.88,129c-3.5.93-3.76-2.46-5.14-4.1-1.63-1.94-2.2-4.75-4.86-5.87,2.31-13.19-2.57-21.55-15.34-26.25-3.73-1.37-7.58-2.47-11.19-4.11-2.69-1.22-4.92-3.17-2.7-6.65,3.74.74,7.51,1.09,11.33.94,2.87-.11,5.48.74,8.1,1.9,12.67,5.64,17.02,16.76,19.5,29.16.3,1.51-.5,3.51,1.97,3.91.25,3.81-.24,7.51-1.67,11.07Z"/>
    <path class="cls-3" d="M229.62,120.93c-1.72,2.98-3.43,5.97-5.56,9.66-4.39-14.42-3.66-27.38,5.68-39.03,4.23-5.27,10.21-7.86,16.58-9.4,4.08-.99,7.86.28,11.2,2.78.06,3.2-2.45,4.08-4.72,5.03-3.06,1.28-6.24,2.28-9.3,3.57-12.09,5.08-16.2,13.25-13.89,27.4Z"/>
    <path class="cls-4" d="M346.18,30.88c-1.76-1.72-3.53-3.42-5.27-5.16-5.48-5.47-12.21-6.48-17.5-2.6-4.05,2.97-4.77,10.17-1.65,16.47.29.59.57,1.18.83,1.73-3.67,3.71-9.31,2.44-11.52-2.44-.6-1.32-.12-3.08-1.62-4.04-1.36-9.66,4.29-18.62,13.29-21.26,8.31-2.44,17.99,2.16,21.62,10.63.9,2.1,1.23,4.44,1.82,6.67Z"/>
    <path class="cls-4" d="M150.94,381.87c-1.99-1.04-1.09-2.91-1.24-4.46-.3-3.08,1.17-6.62-3.14-8.43-1.56-.66-.79-3.06-1.2-4.63-1.85-7.08-9.29-10.74-16-7.71-2.52,1.13-4.34,2.87-4.8,5.87-.5,3.29-1.85,6.41-5.78,6.28-3.51-.12-6.27-1.96-7.14-5.75,2.44,0,4.89,0,7.29,0,2.81-13.53,13.41-19.05,24.88-13.03,4.36,2.29,7.21,5.58,7.08,11-.18,6.95.02,13.91.05,20.87Z"/>
    <path class="cls-4" d="M543.65,363.88c-.96,4.08-4.34,4.91-7.62,4.87-3.44-.04-4.3-2.63-4.57-5.91-.38-4.6-3.75-6.81-8-7.67-3.94-.79-9.89,1.81-11.4,5.55-1.11,2.76-3.3,4.97-3.69,8.1-.22,1.71-1.57,2.89-3.51,2.99-.05-2.5-.15-4.99-.14-7.49.09-12.24,8.77-18.8,20.81-15.78,7.83,1.96,10.66,5.63,11.36,14.79,2.14,1.24,4.57-.46,6.75.54Z"/>
    <path class="cls-4" d="M438.55,117.92c-2.47-.4-1.67-2.41-1.97-3.91-2.48-12.4-6.83-23.52-19.5-29.16-2.62-1.17-5.23-2.01-8.1-1.9-3.81.15-7.59-.2-11.33-.94,2.03-5.17,6.54-5.73,11.1-5.54,16.08.68,28.41,13.09,29.82,29.98.32,3.8,0,7.65-.02,11.47Z"/>
    <path class="cls-4" d="M385.69,73.99c-2.17-2.21-.96-5.07-1.32-7.59-2.08-14.46-12.74-23.63-27.06-26.46-1.83-.36-3.61-.53-4.77-2.21,8.33-4.21,17.41-2.74,24.49,4.58,8.59,8.88,11.72,19.49,8.66,31.67Z"/>
    <path class="cls-4" d="M165.56,137.94c-1.41-3.48-3.77-3.43-6.79-2.09-8.46,3.79-13.46,13.33-11.73,22.63.54,2.92,1.01,5.86,1.51,8.79.22,1.32-.13,2.3-1.58,2.62-6.27-10.4-5.93-23.53.86-32.69,2.99-4.03,6.87-6.75,11.94-7.2,5.34-.47,7.85,3.11,5.79,7.93Z"/>
    <path class="cls-4" d="M128.72,336.66c-.44-2.69-2.48-2.66-4.53-2.74-10.09-.41-20.41,6.9-24.01,16.51-.87,2.34-.68,5.93-4.45,6.47-.66-11.7,4.77-19.79,14.98-24.87,7.77-3.86,16.54-2.47,23,3.42-1.43,1.47-3.27,1.09-4.99,1.2Z"/>
    <path class="cls-4" d="M510.61,164.95c-1.95-2.72-.85-5.8-.87-8.69-.05-7.35-3.69-12.9-8.4-18.01-3.62-3.93-8.4-3.34-13.03-3.36,2.08-4.99,5.41-6.25,10.73-4.06,9.88,4.06,15.57,16.15,13.29,28.44-.36,1.94-1.14,3.79-1.72,5.69Z"/>
    <path class="cls-4" d="M558.69,348.88c-.41,1.77-.85,1.12-1.65.14-5.03-6.21-10.63-11.56-18.3-14.7-3.83-1.57-7.97-.49-11.53-2.48,12.83-5.65,27.02,2.04,31.48,17.04Z"/>
    <path class="cls-4" d="M378.73,88.03c.02-1.01.35-1.78,1.48-1.94-.49.65-.99,1.3-1.48,1.94Z"/>
    <path class="cls-4" d="M158.18,162.74c-1.41-.27-1.44-1.35-1.42-2.45,1.04.49,1.3,1.43,1.42,2.45Z"/>
    <path class="cls-4" d="M376.71,90.13c.4-.37.8-.73,1.19-1.1-.4.37-.8.73-1.19,1.1Z"/>
    <path class="cls-6" d="M420.56,173.27c-.07.4.08.65.47.77.38.48.77.96,1.15,1.45,0,0-.07.03-.07.02,8.85,12.13,16.68,24.82,22.27,38.85,13.83,34.68,20.2,71.03,22.99,107.94,4.02,53.17,2.14,106.17-8.62,158.61-4.97,24.23-11.74,47.84-23.96,69.57-18.36,32.68-44.47,56.56-81.38,65.13-46.42,10.78-85.26-4.34-116.31-39.87-15.71-17.97-24.88-39.51-32.45-61.89-5.23-15.46-8.84-31.36-11.56-47.28-2.11-12.35-3.02-25.04-4.49-37.58-1.03-20.79-2.49-41.56-2.01-62.4.21-9.14-.66-18.36.23-27.41,2.33-23.78,4.72-47.56,9.47-71.04,4.43-21.85,10.04-43.34,19.48-63.58,12.7-27.23,31.17-49.51,58.44-63.29,25.49-12.88,52.31-16.98,80.33-10.18,21.62,5.25,40.15,16.15,55.99,31.71,1.18,1.16,2.47,2.19,3.7,3.28.45.39.91.77,1.36,1.16l-.09-.25s-.25.11-.24.11c.47.53.93,1.05,1.39,1.58.32,1.08,1.04,1.81,2.02,2.3.31.37.63.74.94,1.11,0,0-.11-.12-.11-.11.34.44.69.87,1.03,1.31ZM199.2,368.21c-.12,38.37,2.28,71.07,7.61,103.51,4.29,26.11,11.34,51.6,24.42,74.62,14.9,26.23,35.49,46.31,65.8,55.15,16.77,4.89,33.4,6.56,50.12,2.79,49.2-11.07,75.44-45.67,90.46-90.87,4.39-13.22,6.77-27.04,9.52-40.75,2.69-13.38,5.03-26.79,6.36-40.3,4.68-47.6,3.97-95.15-2.83-142.55-3.82-26.62-9.91-52.63-21.03-77.27-11.41-25.29-28.75-45.5-53.04-59-27.32-15.18-56.05-17.19-85.28-5.96-32.23,12.38-53.09,36.53-66.69,67.31-8.5,19.24-13.11,39.77-17.28,60.36-6.58,32.5-7.38,65.47-8.15,92.96Z"/>
    <path class="cls-4" d="M188.61,428.98c1.46,12.54,2.38,25.24,4.49,37.58,2.72,15.92,6.33,31.83,11.56,47.28,7.57,22.38,16.74,43.92,32.45,61.89,31.06,35.52,69.89,50.65,116.31,39.87,36.91-8.57,63.02-32.45,81.38-65.13,12.21-21.74,18.99-45.34,23.96-69.57,10.76-52.44,12.64-105.44,8.62-158.61-2.79-36.91-9.15-73.26-22.99-107.94-5.6-14.03-13.42-26.72-22.27-38.85,6.78,2.88,13.2,6.4,17.01,12.99,4.89,8.44,9.24,17.19,12.53,26.42,6.65,18.63,12,37.57,15.16,57.17,2.59,16.04,5.3,32.08,6.54,48.25,1.17,15.24,1.49,30.56,1.45,45.88-.06,26.28-2.43,52.36-4.79,78.49-2.52,27.84-9.52,54.57-17.59,81.09-4.38,14.37-11.74,27.51-20.23,39.91-8.85,12.92-19.25,24.64-31.79,33.94-16.89,12.53-35.82,20.83-56.93,23.45-24.01,2.97-47.07-.47-68.82-11.12-21.49-10.52-38.99-25.82-51.69-46.16-9.34-14.96-16.98-30.85-22.58-47.6-2.98-8.93-5.25-18.1-7.62-27.21-3.55-13.67-4.77-27.63-5.3-41.72-.18-4.78-.89-9.57-.83-14.4.03-2.19.05-4.36,1.98-5.9Z"/>
    <path class="cls-6" d="M447.65,186.85c-10.93-16.67-22.48-32.74-37.69-46-40.47-35.29-100.7-43.72-151.74-10.07-18.78,12.38-32.59,29.21-44.7,47.74-.82,1.25-1.65,2.51-2.52,3.72-3.6,5.02-8.5,4.43-11.32-1.35,9.68-19.1,23.19-35.23,38.83-49.64,18.66-17.2,41.14-26.92,65.78-31.1,50.21-8.51,92.02,7.97,126.39,44.7,7.73,8.26,14.64,17.25,20.75,26.8,1.34,2.09,2.63,4.26,3.61,6.53,1.02,2.38,2.1,4.86-.14,7.36-2.16,2.41-4.59,2.23-7.25,1.3Z"/>
    <path class="cls-4" d="M422.19,175.48c-.38-.48-.77-.96-1.15-1.45.74.2,1.45.42,1.15,1.45Z"/>
    <path class="cls-4" d="M416.67,168.67c-.46-.53-.93-1.05-1.39-1.58.9.14,1.13.87,1.39,1.58Z"/>
    <path class="cls-4" d="M420.56,173.27c-.34-.44-.69-.87-1.03-1.31.34.44.69.87,1.03,1.31Z"/>
    <path class="cls-4" d="M419.64,172.08c-.31-.37-.63-.74-.94-1.11.32.37.63.74.94,1.11Z"/>
    <path class="cls-4" d="M415.61,167.23c-.46-.39-.91-.77-1.36-1.16.46.39.91.77,1.36,1.16Z"/>
    <path class="cls-6" d="M284.67,79.06c-5.98-11.81-4.04-22.38,5.34-28.78,5.81-3.96,12.04-4.75,18.45-1.8,3.62,1.66,7.1,3.68,10.45,5.84,6.77,4.36,13.24,3.32,19.68-.64,2.26-1.39,4.58-2.68,6.84-4.08,14.45-8.94,31.23,5.61,28.98,19.83-.08.48.04.99.06,1.49-.54,1.38-1.05,2.78-1.64,4.14-4.21,9.75-7.96,12.11-18.16,10.78-19.37-2.53-38.7-3.33-57.95.84-3.52.76-5.48-1.73-7.94-3.26-.58-.53-1.16-1.05-1.75-1.58-.79-.93-1.58-1.85-2.37-2.78ZM316.89,68.23c-4.7-2.59-8.87-5.27-13.36-7.27-3.92-1.74-8.22.2-9.52,3.75-1.56,4.26,1.02,6.49,4.35,8.18,5.57,2.83,13.08,1.12,18.53-4.66ZM338.33,69.11c6.76,4.78,13.04,6.8,20.12,3.12,2.46-1.28,3.59-3.31,3.33-6.08-.25-2.71-2.16-4.01-4.4-4.82-2.43-.88-4.94-.72-7.19.58-3.81,2.2-7.53,4.55-11.86,7.19Z"/>
    <path class="cls-4" d="M284.67,79.06c.79.93,1.58,1.85,2.37,2.78-2.06.16-2.34-1.2-2.37-2.78Z"/>
    <path class="cls-1" d="M199.2,368.21c.77-27.49,1.57-60.46,8.15-92.96,4.17-20.58,8.78-41.12,17.28-60.36,13.6-30.78,34.46-54.93,66.69-67.31,29.23-11.23,57.97-9.23,85.28,5.96,24.29,13.5,41.63,33.71,53.04,59,11.11,24.63,17.21,50.65,21.03,77.27,6.79,47.4,7.51,94.95,2.83,142.55-1.33,13.51-3.67,26.92-6.36,40.3-2.75,13.71-5.13,27.53-9.52,40.75-15.02,45.2-41.26,79.81-90.46,90.87-16.72,3.76-33.35,2.1-50.12-2.79-30.31-8.84-50.9-28.92-65.8-55.15-13.08-23.02-20.13-48.51-24.42-74.62-5.33-32.44-7.72-65.14-7.61-103.51ZM316.63,591.94c2.63.32,5.24.86,7.88.94,26.98.79,49.76-9.33,68.53-28.06,17.9-17.86,29.58-39.66,35.53-64.19,3.78-15.6,6.24-31.5,8.36-47.44,2.5-18.74,4.34-37.49,4.97-56.41.31-9.3.04-18.53-.18-27.79.28-1.12.8-2.23.81-3.36.22-16.3-.68-32.56-2.32-48.77-.55-5.41-.13-11-2.32-16.19-1.72-11.97-2.43-24.12-6.1-35.75-3.89-20.79-11.17-40.36-21.63-58.69-3-5.25-5.78-10.96-11.46-14.17-.01-2.18-2.57-2.45-3.16-4.2-.15-.3-.24-.64-.45-.88-15.37-17.1-34.87-26.78-57.04-31.59-.67-.15-1.51.47-2.28.73-1.75-1.23-3.76-1.2-5.76-1.13-19.68.66-37.66,6-53.98,17.55-22.12,15.66-35.67,36.97-43.9,62.27-2.77,8.53-4.74,17.24-7.04,25.89-4.83,18.16-7.44,36.6-8.4,55.32.11,2.93-2.17,5.11-2.26,8.09-.65,20.76-1.76,41.47-1.27,62.29.59,24.97,2.22,49.78,5.52,74.51.73,3.86,1.52,7.71,2.19,11.57,1.26,7.2,1.75,14.63,4.68,21.49.17,1.65.05,3.39.55,4.93,4.62,14.38,9.05,28.88,16.91,41.91,9.73,16.14,21.48,30.45,38.62,39.39,7.85,5.69,16.88,8.47,26.17,10.62,2.97.17,5.77,1.66,8.83,1.13Z"/>
    <path class="cls-4" d="M316.89,68.23c-5.45,5.78-12.96,7.49-18.53,4.66-3.33-1.69-5.91-3.92-4.35-8.18,1.3-3.55,5.6-5.49,9.52-3.75,4.48,1.99,8.66,4.67,13.36,7.27Z"/>
    <path class="cls-4" d="M338.33,69.11c4.34-2.64,8.06-4.99,11.86-7.19,2.25-1.3,4.76-1.46,7.19-.58,2.24.81,4.16,2.11,4.4,4.82.25,2.76-.87,4.8-3.33,6.08-7.08,3.67-13.36,1.66-20.12-3.12Z"/>
    <path class="cls-4" d="M281.63,580.19c-17.14-8.94-28.89-23.25-38.62-39.39-7.86-13.03-12.29-27.53-16.91-41.91-.5-1.54-.38-3.28-.55-4.93,1.04-.08,1.94-.41,2.6-1.28,3.52-4.62,7.06-9.22,10.56-13.85,11.8-15.6,23.58-31.21,35.37-46.81,5.3-7.01,10.83-13.86,15.83-21.08,4.23-6.1,2.74-13.82-2.82-17.71-6.99-4.9-13.5-4.37-18.39,2.31-14.6,19.95-30.31,39.06-44.43,59.37-1.56,2.25-2.6,5.05-5.59,5.97-3.3-24.73-4.93-49.54-5.52-74.51-.49-20.82.62-41.53,1.27-62.29.09-2.97,2.37-5.16,2.26-8.09,1.26-.1,2.08-.78,2.82-1.79,9.77-13.38,19.53-26.76,29.37-40.08,10.54-14.26,21.49-28.23,31.65-42.75,11.6-16.57,23.95-32.57,35.9-48.88,6.45-8.8,13.78-16.96,19.35-26.4.76-.26,1.6-.88,2.28-.73,22.17,4.82,41.67,14.49,57.04,31.59.21.24.3.59.45.88-11.94,16.33-23.92,32.64-35.8,49.01-8.18,11.28-16.18,22.69-24.35,33.98-7.1,9.81-14.31,19.54-21.5,29.29-1.2,1.62-1.93,3.38-.3,4.91,1.66,1.55,3.73,1.29,5.46-.09,1.16-.93,2.26-2.02,3.08-3.25,8.02-12.03,16.43-23.76,25.12-35.32,11.06-14.71,21.51-29.88,32.27-44.82,6.87-9.54,14.03-18.88,19.19-29.53,5.68,3.21,8.46,8.92,11.46,14.17,10.46,18.33,17.74,37.9,21.63,58.69-13.82,18.73-41.45,56.2-41.45,56.2,0,0-23.42,25.3-21.47,35.48,1.02,5.35,7.94,12.64,13.24,11.38,6.42-1.52,18-19,18-19,0,0,14.25-20,15-21,3.93-5.27,8.8-11.95,13-17,3.4-4.09,4.75-7.66,9.79-10.31,2.19,5.19,1.78,10.77,2.32,16.19,1.63,16.21,2.54,32.47,2.32,48.77-.01,1.12-.53,2.24-.81,3.36-5.89,2.69-8.81,8.39-12.37,13.12-23.43,31.12-46.5,62.51-69.67,93.82-10.65,14.4-20.92,29.09-31.96,43.18-15.74,20.09-30.54,40.87-46.09,61.08Z"/>
    <path class="cls-2" d="M281.63,580.19c15.56-20.21,30.36-41,46.09-61.08,11.04-14.09,21.31-28.78,31.96-43.18,23.17-31.32,46.24-62.7,69.67-93.82,3.56-4.73,6.48-10.43,12.37-13.12.22,9.26.49,18.49.18,27.79-.64,18.92-2.47,37.67-4.97,56.41-2.13,15.94-4.58,31.85-8.36,47.44-5.95,24.53-17.64,46.33-35.53,64.19-18.77,18.73-41.55,28.85-68.53,28.06-2.63-.08-5.25-.61-7.88-.94,2.38-3.64,5.94-6.2,8.54-9.7,8.9-11.97,18.16-23.67,27.19-35.54,8.03-10.55,15.9-21.22,23.95-31.75,2.24-2.93.79-5.06-1.2-6.92-1.97-1.83-4.31-1.59-6.27.25-1.45,1.36-2.84,2.82-4.03,4.41-16.85,22.38-33.71,44.76-50.42,67.25-2.51,3.38-6.24,6.15-6.6,10.88-9.29-2.15-18.32-4.93-26.17-10.62Z"/>
    <path class="cls-2" d="M335.78,156.12c-5.57,9.44-12.9,17.6-19.35,26.4-11.95,16.3-24.3,32.3-35.9,48.88-10.16,14.52-21.12,28.48-31.65,42.75-9.84,13.32-19.6,26.7-29.37,40.08-.74,1.01-1.56,1.69-2.82,1.79.95-18.72,3.56-37.16,8.4-55.32,2.3-8.64,4.27-17.36,7.04-25.89,8.23-25.31,21.78-46.61,43.9-62.27,16.32-11.56,34.3-16.89,53.98-17.55,2-.07,4.01-.09,5.76,1.13Z"/>
    <path class="cls-2" d="M218.68,460.9c2.99-.93,4.03-3.73,5.59-5.97,14.12-20.31,29.83-39.43,44.43-59.37,4.89-6.68,11.4-7.21,18.39-2.31,5.56,3.89,7.05,11.61,2.82,17.71-5.01,7.21-10.54,14.06-15.83,21.08-11.79,15.6-23.57,31.21-35.37,46.81-3.5,4.63-7.04,9.23-10.56,13.85-.66.86-1.56,1.2-2.6,1.28-2.93-6.86-3.42-14.29-4.68-21.49-.68-3.87-1.47-7.72-2.19-11.57Z"/>
    <path class="cls-2" d="M437.89,300.68c-5.04,2.65-7.18,7.89-10.59,11.97-4.2,5.05-37.2,54.34-44.2,54.34-6,4-16-5-14-13-6-2,48.87-70.33,62.68-89.06,3.67,11.64,4.39,23.78,6.1,35.75Z"/>
    <path class="cls-4" d="M307.8,590.81c.36-4.73,4.09-7.5,6.6-10.88,16.71-22.49,33.57-44.86,50.42-67.25,1.19-1.58,2.58-3.05,4.03-4.41,1.96-1.84,4.31-2.08,6.27-.25,1.99,1.85,3.44,3.98,1.2,6.92-8.05,10.53-15.92,21.21-23.95,31.75-9.04,11.87-18.3,23.57-27.19,35.54-2.6,3.5-6.17,6.06-8.54,9.7-3.06.53-5.86-.97-8.83-1.13Z"/>
    <path class="cls-2" d="M398.7,192.06c-5.16,10.65-12.32,19.99-19.19,29.53-10.76,14.94-21.21,30.1-32.27,44.82-8.69,11.56-17.1,23.29-25.12,35.32-.82,1.23-1.92,2.32-3.08,3.25-1.73,1.38-3.81,1.64-5.46.09-1.63-1.53-.9-3.29.3-4.91,7.19-9.75,14.4-19.48,21.5-29.29,8.17-11.29,16.17-22.7,24.35-33.98,11.88-16.37,23.86-32.68,35.8-49.01.59,1.75,3.14,2.02,3.16,4.2Z"/>
    <path class="cls-6" d="M255.11,336.98c1.17-1.74,23.9-6.93,29,1,7.2,11.2-6,11-6,11-10,1-15,2-27-1-3.57-.89-4.91-7.65-7.9-9.29-4.13-2.26-7.82-5.24-7.65-10.71.07-2.24.52-4.42,3.16-5.04,2.31-.55,4.16.12,5.61,2.18,1.41,2.01,7.81,10.42,10.79,11.86Z"/>
    <path class="cls-6" d="M401.69,336.98c-1.17-1.74-23.9-6.93-29,1-7.2,11.2,6,11,6,11,10,1,15,2,27-1,3.57-.89,4.91-7.65,7.9-9.29,4.13-2.26,7.82-5.24,7.65-10.71-.07-2.24-.52-4.42-3.16-5.04-2.31-.55-4.16.12-5.61,2.18-1.41,2.01-7.81,10.42-10.79,11.86Z"/>
    <path class="cls-6" d="M311.11,397.98c-1.97-.56-2.79-7.23.65-8.22,3.23-.93,28.93-1.21,33.22.35,3.49,1.27,2.66,8.55.13,8.87-8,1-27,1-34-1Z"/>
    <g>
      <path class="cls-6" d="M319.66,666.95c2.45.36,4,3.83,4,6.31,0,.75,0,1.55,0,2.39-.07,58.29-.08,65.52,0,83.97.05,10.54-1.46,21.26,2.97,31.46.82,1.88.55,4.28.56,6.44.02,5.16-.09,10.32-.15,15.48-.41,2.11-.78,4.24-1.22,6.34-1.19,5.66-1.8,11.64-7.85,14.7-4.32-.47-9.42.92-11.19-5.11-7.52,5-15.54,6.87-23.99,7.21-9.66.39-19.32.59-28.92-.89-12.95-2-16.21-7.03-11.42-19.34,7.65-19.66,20.95-34.2,40.96-41.87,1.74-.67,2.96-1.33,3.71-2.41,1.08-1.56.93-3.37.91-3.83-.18-3.5.49-42.84,1.52-98.16.06-3.01,4.12-7.13,7.11-6.69,8.04,1.18,14.96,2.82,23,4Z"/>
      <path class="cls-6" d="M302.57,714.69l-.12.14c-.07,1.32-.21,2.65-.2,3.97.1,18.82.19,37.64.36,56.46.04,4.27-1.04,6.56-5.88,8.06-16.74,5.18-29.61,15.45-37.3,31.59-2.69,5.64-2.03,7.47,4.31,8.22,17.49,2.07,34.16-.44,49.31-10.06,1.09-.69,2.83-1.29,2.76-2.65-.4-8.16,2.21-16.73-3.03-24.28.09-22.3.22-44.61.24-66.91,0-4.64.61-9.31-.37-13.93.11-10.61.19-21.21.37-31.82.03-1.84-.65-2.78-2.42-3.04-2.74-.41-5.48-.84-8.59-1.31v29.11c.02,3.13-.91,6.34.78,9.33-1.11,2.34-.7,4.73-.24,7.13Z"/>
      <path class="cls-4" d="M312.79,786.13c5.24,7.55,2.63,16.12,3.03,24.28.07,1.36-1.67,1.96-2.76,2.65-15.15,9.63-31.83,12.13-49.31,10.06-6.34-.75-7-2.58-4.31-8.22,7.69-16.14,20.56-26.4,37.3-31.59,4.84-1.5,5.92-3.79,5.88-8.06-.17-18.82-.26-37.64-.36-56.46,0-1.32.13-2.65.2-3.96,1.31,2.07,1.41,4.35,1.4,6.71-.05,17.1.29,34.22-.21,51.31-.21,7.27,3.04,10.95,9.15,13.27Z"/>
      <path class="cls-1" d="M312.79,786.13c-6.11-2.31-9.36-6-9.15-13.27.5-17.09.16-34.21.21-51.31,0-2.36-.09-4.64-1.4-6.71,0-.01.12-.15.12-.15,4.04-2.24.95-4.72.24-7.12-1.7-2.99-.76-6.2-.78-9.33,4.6.76,6.49,5.62,10.64,7.06.98,4.62.37,9.29.37,13.93-.02,22.3-.15,44.61-.24,66.91Z"/>
      <path class="cls-5" d="M312.67,705.29c-4.16-1.44-6.04-6.3-10.64-7.06,0-8.83,0-17.66,0-26.78,0-1.23,1.1-2.17,2.31-1.98,2.19.34,4.23.66,6.28.96,1.77.26,2.45,1.2,2.42,3.04-.18,10.61-.25,21.21-.37,31.82Z"/>
      <path class="cls-4" d="M302.81,707.57c.71,2.4,3.8,4.88-.24,7.12-.46-2.39-.87-4.78.24-7.12Z"/>
    </g>
    <g>
      <path class="cls-6" d="M349.23,662.98c2.98-.44,7.05,3.67,7.11,6.69,1.02,55.32,1.69,94.67,1.52,98.16-.02.46-.17,2.27.91,3.83.75,1.08,1.97,1.74,3.71,2.41,20,7.67,33.31,22.21,40.96,41.87,4.79,12.32,1.54,17.34-11.42,19.34-9.59,1.48-19.26,1.29-28.92.89-8.45-.34-16.47-2.21-23.99-7.21-1.77,6.04-6.87,4.64-11.19,5.11-6.06-3.06-6.66-9.04-7.85-14.7-.44-2.11-.82-4.23-1.22-6.34-.06-5.16-.17-10.32-.15-15.48,0-2.16-.25-4.56.56-6.44,4.43-10.2,2.93-20.92,2.97-31.46.08-18.46.07-25.68,0-83.97,0-.85,0-1.65,0-2.39,0-2.48,1.55-5.95,4-6.31,8.04-1.18,14.96-2.82,23-4Z"/>
      <path class="cls-6" d="M343.08,707.59c1.7-2.99.76-6.2.78-9.33,0-9.58,0-19.17,0-29.11-3.1.48-5.84.91-8.59,1.31-1.77.26-2.45,1.2-2.42,3.04.18,10.61.25,21.21.37,31.82-.98,4.62-.37,9.29-.37,13.93.02,22.3.15,44.61.24,66.91-5.24,7.55-2.63,16.12-3.03,24.28-.07,1.36,1.67,1.96,2.76,2.65,15.15,9.63,31.83,12.13,49.31,10.06,6.34-.75,7-2.58,4.31-8.22-7.69-16.14-20.56-26.4-37.3-31.59-4.84-1.5-5.92-3.79-5.88-8.06.17-18.82.26-37.64.36-56.46,0-1.32-.13-2.65-.2-3.97l-.12-.14c.46-2.39.87-4.78-.24-7.13Z"/>
      <path class="cls-4" d="M333.09,786.16c-5.24,7.55-2.63,16.12-3.03,24.28-.07,1.36,1.67,1.96,2.76,2.65,15.15,9.63,31.83,12.13,49.31,10.06,6.34-.75,7-2.58,4.31-8.22-7.69-16.14-20.56-26.4-37.3-31.59-4.84-1.5-5.92-3.79-5.88-8.06.17-18.82.26-37.64.36-56.46,0-1.32-.13-2.65-.2-3.96-1.31,2.07-1.41,4.35-1.4,6.71.05,17.1-.29,34.22.21,51.31.21,7.27-3.04,10.95-9.15,13.27Z"/>
      <path class="cls-1" d="M333.09,786.16c6.11-2.31,9.36-6,9.15-13.27-.5-17.09-.16-34.21-.21-51.31,0-2.36.09-4.64,1.4-6.71,0-.01-.12-.15-.12-.15-4.04-2.24-.95-4.72-.24-7.12,1.7-2.99.76-6.2.78-9.33-4.6.76-6.49,5.62-10.64,7.06-.98,4.62-.37,9.29-.37,13.93"/>
      <path class="cls-5" d="M333.22,705.32c4.16-1.44,6.04-6.3,10.64-7.06,0-8.83,0-17.66,0-26.78,0-1.23-1.1-2.17-2.31-1.98-2.19.34-4.23.66-6.28.96-1.77.26-2.45,1.2-2.42,3.04.18,10.61.25,21.21.37,31.82Z"/>
      <path class="cls-4" d="M343.08,707.59c-.71,2.4-3.8,4.88.24,7.12.46-2.39.87-4.78-.24-7.12Z"/>
    </g>
    <g>
      <path class="cls-6" d="M626.7,391.32c-17.3-9.73-18.66-32.75-10.97-46.34,4.96-8.75,14.13-10.82,22.61-5.36,13.14,8.47,19.48,27.37,14.01,41.93-1.83,4.88-4.97,8.61-9.98,10.51-1.07.41-2.32.49-2.84,1.78-1.96,4.89-14.74,2.36-12.82-2.52Z"/>
      <path class="cls-6" d="M638.3,357.45c-1.89-2.23-3.56-4.72-6.07-6.5-2.85-2.02-4.95-1.25-6.66,1.46-4.08,6.47-1.55,21.64,4.41,26.52,4.81,3.95,9.88,2.39,11.35-3.66,1.53-6.3.11-12.2-3.04-17.82Z"/>
      <path class="cls-4" d="M638.3,357.45c3.15,5.63,4.57,11.52,3.04,17.82-1.47,6.05-6.54,7.61-11.35,3.66-5.96-4.88-8.49-20.05-4.41-26.52,1.71-2.71,3.81-3.48,6.66-1.46,2.51,1.78,4.17,4.27,6.07,6.5Z"/>
    </g>
    <g>
      <path class="cls-6" d="M27.76,391.28c17.23-9.85,18.43-32.89,10.64-46.42-5.02-8.72-14.21-10.72-22.64-5.2-13.08,8.56-19.28,27.5-13.71,42.03,1.87,4.87,5.03,8.57,10.06,10.44,1.07.4,2.33.48,2.85,1.76,1.99,4.87,14.75,2.25,12.81-2.61Z"/>
      <path class="cls-6" d="M15.92,357.49c1.88-2.24,3.52-4.75,6.02-6.54,2.84-2.04,4.94-1.29,6.67,1.41,4.12,6.44,1.7,21.62-4.22,26.55-4.79,3.98-9.86,2.46-11.38-3.58-1.58-6.29-.19-12.2,2.91-17.85Z"/>
      <path class="cls-4" d="M15.92,357.49c-3.11,5.65-4.49,11.56-2.91,17.85,1.52,6.04,6.59,7.56,11.38,3.58,5.92-4.93,8.35-20.11,4.22-26.55-1.73-2.7-3.83-3.45-6.67-1.41-2.5,1.79-4.14,4.3-6.02,6.54Z"/>
    </g>
    <path class="cls-6" d="M510.99,527.55c-9.48,23.58-21.89,45.5-36.38,66.38-25.38,36.57-57.02,67.6-100.68,77.41-51.48,11.56-74.48,5.56-101.63-2.12-18.85-5.34-35.4-16.09-50.65-28.58-40.66-33.29-60.82-72.43-70.81-93.53-9.83-20.76-15.53-38.88-18.84-51.17-18,3-74,57-117-102-1.14-4.23,12.96,1.28,12-3,35,156,100.6,88.8,101,88.04,0-.01,0-.03,0-.04-1.74-4.28-5.17-37.82-4.87-63.87.08-7.08.01-14.16.01-21.13-18.26-.48-32.12-7.21-39.22-24.49-5.87-14.3-2.73-30.54,8.42-40.99,16-14.99,33.19-15.46,51.13-2.6,4.75-43.02,11.21-85.21,25.3-126.12-1.59-.39-2.68-.68-3.78-.93-26.87-6.29-42.08-30.4-35.63-56.48,3.74-15.13,18.19-26.53,32.25-25.46,8.88.68,16,6.71,17.71,15,1.74,8.43-1.92,15.48-10.08,19.63-1.14.58-2.77.2-3.45,1.69,3.16,4.93,8.36,6.4,14.72,4.16,11.62-4.1,23.38-23.27,21.93-35.56-.45-3.8-.73-7.65-.67-11.47.32-21.59,12.93-39.14,32.23-45.1,6.44-1.99,13.03-2.06,19.59-1.18.18-1.03.34-1.52.34-2.01.32-19.64,19.77-41.19,39.97-39.64,2.08.16,2.9-1,3.51-2.76,3.62-10.49,11.83-15.91,21.88-18.59,14.47-3.87,28.97,3.53,35.87,17.69.99,2.03,1.39,4.01,4.67,4.11,17.21.54,30.66,10.58,36.68,26.76,1.73,4.66,2.53,9.52,3.29,14.68,4.49-1.44,8.76-1.57,13.09-.77,25.82,4.79,41.86,28.58,36.97,56.1-1.22,6.84.09,12.28,3.26,17.9,3.05,5.41,6.65,10.38,11.25,14.55,4.34,3.94,9.34,6.39,15.38,5.89,3.29-.27,6.03-1.49,7.18-5.07-.62-.43-.97-.77-1.39-.96-8.98-3.98-13.47-11.69-11.71-20.14,1.86-8.97,9.03-14.96,18.61-15.02,13.55-.09,22.62,7.36,28.28,18.8,10.55,21.31,1.16,47.54-20.65,59.37-4.94,2.68-10.31,4.01-15.85,5.13,15.29,40.9,19.64,83.48,25.04,125.93,16.98-11.2,31.99-11.94,45.94-2.35,13.03,8.95,19.53,24.72,15.46,39.79-5.55,20.52-19.91,30.05-40.59,30.73,0,7.05.04,14.04,0,21.02-.2,32.08-1.85,63.96-12.86,94.56-.46,1.28-.39,2.18.39,3.18M217.22,128.95c.12,1.62.73,3.22-.37,4.82-5.54,8.08-9.77,17.06-16.45,24.35-5.58,6.1-11.8,11.4-20.29,12.79-8.95,1.46-16.88-.49-22.75-8.03-5.43-11.47-4.11-16.44,6.37-24.14,1.32-.97,2.88-1.8,2.06-3.9-2.08-4.99-5.41-6.25-10.73-4.06-9.88,4.06-15.57,16.15-13.29,28.44.36,1.94,1.14,3.79,1.72,5.69,6.16,16.3,21.4,24.83,38.04,21.08,2.49-.56,4.79-.69,6.38,1.2,1.74,2.07-.79,3.49-1.57,5.13-6.65,13.88-11.24,28.48-14.71,43.39-7.49,32.13-13.04,64.57-15.17,97.55-.36,5.54-1.27,10.65,2.98,15.36,2.36,2.62,2.18,6.49,2.2,10.04.17,28.14-.38,56.3,1.8,84.39,3.07,39.56,12.46,77.45,30.55,112.92,6.66,13.07,15.87,24.38,25.42,35.49,9.17,10.67,19.15,20.28,30.91,27.98,24.69,16.18,51.63,25.06,81.33,23.31,37.56-2.21,69.7-16.46,96.13-43.79,26.4-27.29,41.05-60.58,51.36-96.28,8.9-30.81,11.44-62.44,11.67-94.34.12-16.82.32-33.64.33-50.47,0-4.54,1.15-8.38,4.08-11.94,4.22-5.15.83-10.76.41-16.17-.3-15.06-2.41-29.92-4.77-44.76-2.99-24.44-8.41-48.34-15.96-71.76-2.49-7.72-4.87-15.49-8.71-22.7-.78-1.46-1.47-3.17-.16-4.66,1.14-1.3,2.63-.99,4.13-.4,14.3,5.61,31.28-3.6,36.96-15.64,6.27-10.4,5.93-23.53-.86-32.69-2.99-4.03-6.87-6.75-11.94-7.2-5.34-.47-7.85,3.11-5.79,7.93.46,1.39,1.78,1.92,2.83,2.64,7.29,4.98,7.79,11.98,5.98,19.71-1.04.49-1.3,1.43-1.42,2.46l-.03-.27c-9.97,10.95-22.99,12.25-35.17,3.17-11.48-8.56-18.46-20.72-25.45-32.83-1.31-2.26-.08-4.25.44-6.23,2.57-9.87,3.02-19.67-.37-29.44-4.64-13.37-17.91-22.09-30.78-20.26-6.11.87-8.78,3.57-7.99,8.07-.06,3.2,2.45,4.08,4.72,5.03,3.06,1.28,6.24,2.28,9.3,3.57,12.09,5.08,16.2,13.25,13.89,27.4-.92.99-1.71.65-2.46-.23-12.61-14.65-29.79-21.79-47.13-28.68-.42-.17-.82-.39-1.74-.82,7.85-5.97,11.98-13.66,12.94-23.23,1.24-12.39-5.12-24.6-16.22-30.13-5.82-2.9-11.74-3.16-17.64-.13-2.82-.19-5.42-.96-7.59-2.87,1.36-9.66-4.29-18.62-13.29-21.26-8.31-2.44-17.99,2.16-21.62,10.63-.9,2.1-1.23,4.44-1.82,6.67.17,4.4-2.56,6.13-6.36,6.86-8.33-4.21-17.41-2.74-24.49,4.58-8.59,8.88-11.72,19.49-8.66,31.67.61,4.58,2.94,8.39,5.48,12.1.49.65.99,1.3,1.48,1.94,0,.57.21.95.83,1,.4.37.8.73,1.19,1.1.35.27.7.54,1.05.81-.15,1.58-1.61,1.51-2.57,1.85-8.76,3.17-17.28,6.85-25.28,11.67-7.99,4.81-15.07,10.78-21.79,17.05-1.47-.39-1.05-1.71-1.58-2.49-2.31-13.19,2.57-21.55,15.34-26.25,3.73-1.37,7.58-2.47,11.19-4.11,2.69-1.22,4.92-3.17,2.7-6.65-2.03-5.17-6.54-5.73-11.1-5.54-16.08.68-28.41,13.09-29.82,29.98-.32,3.8,0,7.65.02,11.47-.25,3.81.24,7.51,1.67,11.07ZM102.39,373.74c7.64,6.47,19.46,8.28,27.43,4.2,5.47-2.8,6.24-2.33,6.28,4.06.13,20.15-.09,40.31.43,60.46.78,30.09,8.3,58.75,20.38,86.16,9.74,22.1,20.3,43.86,35.58,62.85,18.47,22.96,38.66,44.23,65.48,57.52,29.18,14.45,60,20.9,92.51,14.76,31.31-5.92,58.61-19.87,81.96-41.76,36.05-33.79,59-75.38,74.03-121.9,9.1-28.17,10.2-57.19,9.99-86.41-.08-11.16-.07-22.31-.05-33.47,0-4.63,1.18-5.26,5.29-2.99,16.24,8.97,36.34-2.18,36.67-20.34.66-11.69-4.77-19.79-14.98-24.87-7.77-3.86-16.54-2.47-23,3.42,1.43,1.47,3.27,1.09,4.99,1.2,8.47,1.73,15.85,5.09,19.64,13.57,2.54,5.67,1.87,8.76-2.56,12.8h-7.29c-2.81-13.53-13.41-19.05-24.88-13.03-4.36,2.29-7.21,5.58-7.08,11,.18,6.95-.02,13.91-.05,20.87-1.1,13.12-.46,26.28-.74,39.42-1.04,49.48-10.74,96.92-34.19,140.86-16.93,31.72-39.84,58.3-72.01,75.41-32.13,17.09-66.18,22.31-102.07,14.18-22.84-5.17-43.19-15.27-61.26-29.88-29.02-23.46-48.67-53.59-61.72-88.33-12.09-32.2-18.25-65.61-20.62-99.78-1.27-18.29-.94-36.64-1.02-54.97,0-2.32-.18-4.65-.28-6.97.05-2.5.15-4.99.14-7.49-.09-12.24-8.77-18.8-20.81-15.78-7.83,1.96-10.66,5.63-11.36,14.79-2.14,1.24-4.57-.46-6.75.54-5-3.03-6.3-6.44-4.08-12.1,3.66-9.31,11.22-13.43,20.64-14.91,1.57-.25,3.32.41,4.9-.98-1-2.22-2.44-3.81-5.02-4.06-12.83-5.65-27.02,2.04-31.48,17.04-2.82,8.56.14,19.12,6.98,24.91Z"/>
  </g>
</svg>